<svg version="1.1" viewBox="0.0 0.0 1536.0 540.0" fill="none" stroke="none" stroke-linecap="square" stroke-miterlimit="10" xmlns:xlink="http://www.w3.org/1999/xlink" xmlns="http://www.w3.org/2000/svg"><clipPath id="p.0"><path d="m0 0l1536.0 0l0 540.0l-1536.0 0l0 -540.0z" clip-rule="nonzero"/></clipPath><g clip-path="url(#p.0)"><path fill="#ffffff" d="m0 0l1536.0 0l0 540.0l-1536.0 0z" fill-rule="evenodd"/><path fill="#000000" fill-opacity="0.0" d="m711.20996 95.0l736.78735 0l0 328.0l-736.78735 0z" fill-rule="evenodd"/><path fill="#000000" d="m741.4131 175.63126l77.484375 0q26.203125 0 39.953125 4.015625q18.484375 5.4375 31.65625 19.328125q13.171875 13.890625 20.046875 34.015625q6.875 20.125 6.875 49.625q0 25.921875 -6.4375 44.6875q-7.875 22.921875 -22.484375 37.09375q-11.03125 10.75 -29.796875 16.765625q-14.03125 4.4375 -37.53125 4.4375l-79.765625 0l0 -209.96875zm42.390625 35.515625l0 139.07812l31.65625 0q17.75 0 25.640625 -2.0q10.3125 -2.578125 17.109375 -8.734375q6.796875 -6.171875 11.09375 -20.28125q4.296875 -14.109375 4.296875 -38.453125q0 -24.34375 -4.296875 -37.375q-4.296875 -13.03125 -12.03125 -20.328125q-7.734375 -7.3125 -19.609375 -9.890625q-8.890625 -2.015625 -34.8125 -2.015625l-19.046875 0zm158.83221 106.140625l41.25 -4.015625q3.734375 20.765625 15.109375 30.515625q11.390625 9.734375 30.734314 9.734375q20.46875 0 30.859375 -8.65625q10.390625 -8.671875 10.390625 -20.28125q0 -7.453125 -4.375 -12.671875q-4.375 -5.234375 -15.25 -9.09375q-7.453125 -2.578125 -33.953064 -9.171875q-34.078125 -8.453125 -47.828125 -20.765625q-19.34375 -17.328125 -19.34375 -42.25q0 -16.046875 9.09375 -30.0q9.09375 -13.96875 26.203125 -21.265625q17.125 -7.3125 41.328064 -7.3125q39.53125 0 59.515625 17.328125q19.984375 17.328125 20.984375 46.265625l-42.390625 1.859375q-2.734375 -16.1875 -11.6875 -23.265625q-8.9375 -7.09375 -26.84375 -7.09375q-18.484314 0 -28.937439 7.578125q-6.734375 4.875 -6.734375 13.046875q0 7.4375 6.3125 12.734375q8.015625 6.734375 38.953064 14.046875q30.9375 7.296875 45.75 15.109375q14.828125 7.796875 23.203125 21.34375q8.390625 13.53125 8.390625 33.4375q0 18.046875 -10.03125 33.8125q-10.03125 15.75 -28.359375 23.40625q-18.328125 7.65625 -45.6875 7.65625q-39.81244 0 -61.15619 -18.390625q-21.34375 -18.40625 -25.5 -53.640625zm195.64752 0l41.25 -4.015625q3.734375 20.765625 15.109375 30.515625q11.390625 9.734375 30.734375 9.734375q20.46875 0 30.859375 -8.65625q10.390625 -8.671875 10.390625 -20.28125q0 -7.453125 -4.375 -12.671875q-4.375 -5.234375 -15.25 -9.09375q-7.453125 -2.578125 -33.953125 -9.171875q-34.078125 -8.453125 -47.828125 -20.765625q-19.34375 -17.328125 -19.34375 -42.25q0 -16.046875 9.09375 -30.0q9.09375 -13.96875 26.203125 -21.265625q17.125 -7.3125 41.328125 -7.3125q39.53125 0 59.515625 17.328125q19.984375 17.328125 20.984375 46.265625l-42.390625 1.859375q-2.734375 -16.1875 -11.6875 -23.265625q-8.9375 -7.09375 -26.84375 -7.09375q-18.484375 0 -28.9375 7.578125q-6.734375 4.875 -6.734375 13.046875q0 7.4375 6.3125 12.734375q8.015625 6.734375 38.953125 14.046875q30.9375 7.296875 45.75 15.109375q14.828125 7.796875 23.203125 21.34375q8.390625 13.53125 8.390625 33.4375q0 18.046875 -10.03125 33.8125q-10.03125 15.75 -28.359375 23.40625q-18.328125 7.65625 -45.6875 7.65625q-39.8125 0 -61.15625 -18.390625q-21.34375 -18.40625 -25.5 -53.640625z" fill-rule="nonzero"/><path fill="#000000" fill-opacity="0.0" d="m690.0 246.0l78.04724 -49.984253" fill-rule="evenodd"/><path stroke="#000000" stroke-width="12.0" stroke-linejoin="round" stroke-linecap="butt" d="m690.0 246.0l78.04724 -49.984253" fill-rule="evenodd"/><path fill="#000000" fill-opacity="0.0" d="m766.0 364.0l-77.98425 -112.0" fill-rule="evenodd"/><path stroke="#000000" stroke-width="12.0" stroke-linejoin="round" stroke-linecap="butt" d="m766.0 364.0l-77.98425 -112.0" fill-rule="evenodd"/><path fill="#000000" fill-opacity="0.0" d="m329.8751 193.9998c-3.895874 2.8127747 -6.999115 11.938324 -5.873993 16.750656c1.1250916 4.8123474 10.457977 5.352585 12.624664 12.123367c2.1666565 6.7707825 -1.1662292 19.209534 0.3753357 28.501312c1.5415344 9.291763 3.894989 18.124222 8.873993 27.249344c4.979004 9.125122 14.353912 21.29309 21.0 27.501312c6.646118 6.2082214 13.105438 7.4566956 18.876648 9.748016c5.7712097 2.2913513 10.083984 3.2287903 15.750671 4.0c5.6666565 0.77124023 12.415985 0.75198364 18.249329 0.62731934c5.8333435 -0.124694824 10.375763 -0.29177856 16.750671 -1.3753357c6.374878 -1.0835571 15.873993 -2.855194 21.498688 -5.1259766c5.6246643 -2.2707825 7.978546 -4.4361267 12.249329 -8.498688c4.2707825 -4.062561 9.35434 -8.605438 13.375336 -15.876648c4.020996 -7.2712097 7.937866 -20.438324 10.750641 -27.750671c2.8127747 -7.312317 4.6049805 -12.269455 6.126007 -16.123352c1.5209961 -3.8538818 1.7712097 -5.312332 3.0 -7.0c1.2287598 -1.6876526 2.7895813 -2.6049805 4.3726807 -3.1259766c1.5831299 -0.5209961 3.3132324 -0.93743896 5.126007 0c1.8127441 0.93743896 3.9382935 1.832901 5.7506714 5.6246643c1.8123169 3.7917786 2.9776611 10.479889 5.123352 17.125977c2.14563 6.646118 4.5214233 16.021454 7.7506104 22.750671c3.229248 6.7292175 7.853943 12.979004 11.624695 17.624664c3.770752 4.645691 5.916443 7.249359 11.0 10.249359c5.083557 3.0 13.480286 5.938324 19.501343 7.750641c6.020996 1.8123474 9.770752 2.5402527 16.624634 3.123352c6.853882 0.5831299 16.76947 0.91690063 24.498718 0.3753357c7.729187 -0.54156494 15.376648 -1.2082214 21.876648 -3.6246643c6.5 -2.4164429 12.019226 -6.520111 17.123352 -10.874023c5.104065 -4.353882 9.521851 -9.353455 13.501282 -15.249329c3.9794312 -5.8959045 7.6255493 -12.583984 10.375366 -20.126007c2.7497559 -7.541992 5.081787 -17.792633 6.123352 -25.125977c1.041565 -7.3333282 -0.16583252 -14.936569 0.12597656 -18.874008c0.29174805 -3.937439 -0.2086792 -2.2716522 1.6246338 -4.750656c1.833374 -2.479004 8.562561 -5.4982452 9.375366 -10.123367c0.81274414 -4.625107 -0.8945923 -14.647842 -4.4987183 -17.627289c-3.604126 -2.9794464 -12.521423 0.9173279 -17.125977 -0.24934387c-4.604553 -1.1666718 -6.2510986 -4.4588776 -10.501282 -6.750656c-4.250244 -2.2917786 -9.833374 -5.3753357 -15.0 -7.0c-5.166687 -1.6246796 -5.791809 -2.2900238 -16.0 -2.7480316c-10.208252 -0.4580078 -33.562134 -1.0831146 -45.24939 0c-11.687195 1.0831146 -15.415527 3.1863556 -24.873962 6.4986877c-9.458496 3.3123322 -24.459778 10.541992 -31.876648 13.37532c-7.416931 2.8333435 -8.208252 2.9164581 -12.624695 3.6246796c-4.416443 0.70822144 -8.749329 1.5411224 -13.874023 0.6246643c-5.1246643 -0.9164429 -9.769897 -3.3941345 -16.873993 -6.123352c-7.104126 -2.7292175 -16.063019 -7.397644 -25.750671 -10.251968c-9.687653 -2.8543243 -18.41687 -5.8324585 -32.375336 -6.8740234c-13.958435 -1.0415497 -39.000427 -1.3127594 -51.375305 0.62467957c-12.374908 1.937439 -17.936584 8.458435 -22.874023 11.0c-4.937439 2.5415497 -2.7086792 3.5201263 -6.7506714 4.249344c-4.041992 0.7292175 -13.605408 -2.6867828 -17.501312 0.12597656z" fill-rule="evenodd"/><path stroke="#000000" stroke-width="24.0" stroke-linejoin="round" stroke-linecap="butt" d="m329.8751 193.9998c-3.895874 2.8127747 -6.999115 11.938324 -5.873993 16.750656c1.1250916 4.8123474 10.457977 5.352585 12.624664 12.123367c2.1666565 6.7707825 -1.1662292 19.209534 0.3753357 28.501312c1.5415344 9.291763 3.894989 18.124222 8.873993 27.249344c4.979004 9.125122 14.353912 21.29309 21.0 27.501312c6.646118 6.2082214 13.105438 7.4566956 18.876648 9.748016c5.7712097 2.2913513 10.083984 3.2287903 15.750671 4.0c5.6666565 0.77124023 12.415985 0.75198364 18.249329 0.62731934c5.8333435 -0.124694824 10.375763 -0.29177856 16.750671 -1.3753357c6.374878 -1.0835571 15.873993 -2.855194 21.498688 -5.1259766c5.6246643 -2.2707825 7.978546 -4.4361267 12.249329 -8.498688c4.2707825 -4.062561 9.35434 -8.605438 13.375336 -15.876648c4.020996 -7.2712097 7.937866 -20.438324 10.750641 -27.750671c2.8127747 -7.312317 4.6049805 -12.269455 6.126007 -16.123352c1.5209961 -3.8538818 1.7712097 -5.312332 3.0 -7.0c1.2287598 -1.6876526 2.7895813 -2.6049805 4.3726807 -3.1259766c1.5831299 -0.5209961 3.3132324 -0.93743896 5.126007 0c1.8127441 0.93743896 3.9382935 1.832901 5.7506714 5.6246643c1.8123169 3.7917786 2.9776611 10.479889 5.123352 17.125977c2.14563 6.646118 4.5214233 16.021454 7.7506104 22.750671c3.229248 6.7292175 7.853943 12.979004 11.624695 17.624664c3.770752 4.645691 5.916443 7.249359 11.0 10.249359c5.083557 3.0 13.480286 5.938324 19.501343 7.750641c6.020996 1.8123474 9.770752 2.5402527 16.624634 3.123352c6.853882 0.5831299 16.76947 0.91690063 24.498718 0.3753357c7.729187 -0.54156494 15.376648 -1.2082214 21.876648 -3.6246643c6.5 -2.4164429 12.019226 -6.520111 17.123352 -10.874023c5.104065 -4.353882 9.521851 -9.353455 13.501282 -15.249329c3.9794312 -5.8959045 7.6255493 -12.583984 10.375366 -20.126007c2.7497559 -7.541992 5.081787 -17.792633 6.123352 -25.125977c1.041565 -7.3333282 -0.16583252 -14.936569 0.12597656 -18.874008c0.29174805 -3.937439 -0.2086792 -2.2716522 1.6246338 -4.750656c1.833374 -2.479004 8.562561 -5.4982452 9.375366 -10.123367c0.81274414 -4.625107 -0.8945923 -14.647842 -4.4987183 -17.627289c-3.604126 -2.9794464 -12.521423 0.9173279 -17.125977 -0.24934387c-4.604553 -1.1666718 -6.2510986 -4.4588776 -10.501282 -6.750656c-4.250244 -2.2917786 -9.833374 -5.3753357 -15.0 -7.0c-5.166687 -1.6246796 -5.791809 -2.2900238 -16.0 -2.7480316c-10.208252 -0.4580078 -33.562134 -1.0831146 -45.24939 0c-11.687195 1.0831146 -15.415527 3.1863556 -24.873962 6.4986877c-9.458496 3.3123322 -24.459778 10.541992 -31.876648 13.37532c-7.416931 2.8333435 -8.208252 2.9164581 -12.624695 3.6246796c-4.416443 0.70822144 -8.749329 1.5411224 -13.874023 0.6246643c-5.1246643 -0.9164429 -9.769897 -3.3941345 -16.873993 -6.123352c-7.104126 -2.7292175 -16.063019 -7.397644 -25.750671 -10.251968c-9.687653 -2.8543243 -18.41687 -5.8324585 -32.375336 -6.8740234c-13.958435 -1.0415497 -39.000427 -1.3127594 -51.375305 0.62467957c-12.374908 1.937439 -17.936584 8.458435 -22.874023 11.0c-4.937439 2.5415497 -2.7086792 3.5201263 -6.7506714 4.249344c-4.041992 0.7292175 -13.605408 -2.6867828 -17.501312 0.12597656z" fill-rule="evenodd"/><path fill="#000000" fill-opacity="0.0" d="m500.0 202.0l0 50.015747" fill-rule="evenodd"/><path stroke="#000000" stroke-width="24.0" stroke-linejoin="round" stroke-linecap="butt" d="m500.0 202.0l0 50.015747" fill-rule="evenodd"/><path fill="#000000" fill-opacity="0.0" d="m521.0 202.0l0 49.007874" fill-rule="evenodd"/><path stroke="#000000" stroke-width="24.0" stroke-linejoin="round" stroke-linecap="butt" d="m521.0 202.0l0 49.007874" fill-rule="evenodd"/><path fill="#000000" d="m417.47375 237.0l0 0c0 -19.882248 11.196411 -36.0 25.007874 -36.0l0 0c6.6325073 0 12.993347 3.7928467 17.683228 10.544159c4.6898804 6.7513123 7.324646 15.908051 7.324646 25.455841l0 0c0 19.882263 -11.196411 36.0 -25.007874 36.0l0 0c-13.811462 0 -25.007874 -16.117737 -25.007874 -36.0z" fill-rule="evenodd"/><path stroke="#000000" stroke-width="1.0" stroke-linejoin="round" stroke-linecap="butt" d="m417.47375 237.0l0 0c0 -19.882248 11.196411 -36.0 25.007874 -36.0l0 0c6.6325073 0 12.993347 3.7928467 17.683228 10.544159c4.6898804 6.7513123 7.324646 15.908051 7.324646 25.455841l0 0c0 19.882263 -11.196411 36.0 -25.007874 36.0l0 0c-13.811462 0 -25.007874 -16.117737 -25.007874 -36.0z" fill-rule="evenodd"/><path fill="#000000" d="m553.47375 238.0l0 0c0 -19.882248 11.196411 -36.0 25.007874 -36.0l0 0c6.6325073 0 12.993347 3.7928467 17.683228 10.544159c4.6898804 6.7513123 7.324646 15.908051 7.324646 25.455841l0 0c0 19.882263 -11.196411 36.0 -25.007874 36.0l0 0c-13.811462 0 -25.007874 -16.117737 -25.007874 -36.0z" fill-rule="evenodd"/><path stroke="#000000" stroke-width="1.0" stroke-linejoin="round" stroke-linecap="butt" d="m553.47375 238.0l0 0c0 -19.882248 11.196411 -36.0 25.007874 -36.0l0 0c6.6325073 0 12.993347 3.7928467 17.683228 10.544159c4.6898804 6.7513123 7.324646 15.908051 7.324646 25.455841l0 0c0 19.882263 -11.196411 36.0 -25.007874 36.0l0 0c-13.811462 0 -25.007874 -16.117737 -25.007874 -36.0z" fill-rule="evenodd"/><path fill="#000000" d="m116.220634 933.9537l615.8086 0l0 -578.9665c-307.9043 0 -307.9043 -220.59686 -615.8086 -95.25772z" fill-rule="evenodd"/><path stroke="#ffffff" stroke-width="12.0" stroke-linejoin="round" stroke-linecap="butt" d="m116.220634 933.9537l615.8086 0l0 -578.9665c-307.9043 0 -307.9043 -220.59686 -615.8086 -95.25772z" fill-rule="evenodd"/><path fill="#ffffff" d="m116.220474 899.273l615.8086 0l0 -505.31204c-307.90427 0 -307.90427 -192.53317 -615.8086 -83.13931z" fill-rule="evenodd"/><path stroke="#ffffff" stroke-width="24.0" stroke-linejoin="round" stroke-linecap="butt" d="m116.220474 899.273l615.8086 0l0 -505.31204c-307.90427 0 -307.90427 -192.53317 -615.8086 -83.13931z" fill-rule="evenodd"/><path fill="#000000" d="m733.48816 197.00787l0 0c0 -16.0206 12.987305 -29.007874 29.007874 -29.007874l0 0c7.6934204 0 15.071655 3.0561829 20.511719 8.496216c5.4400024 5.440033 8.496216 12.818298 8.496216 20.511658l0 0c0 16.0206 -12.987305 29.007874 -29.007935 29.007874l0 0c-16.020569 0 -29.007874 -12.987274 -29.007874 -29.007874z" fill-rule="evenodd"/><path stroke="#ffffff" stroke-width="8.0" stroke-linejoin="round" stroke-linecap="butt" d="m733.48816 197.00787l0 0c0 -16.0206 12.987305 -29.007874 29.007874 -29.007874l0 0c7.6934204 0 15.071655 3.0561829 20.511719 8.496216c5.4400024 5.440033 8.496216 12.818298 8.496216 20.511658l0 0c0 16.0206 -12.987305 29.007874 -29.007935 29.007874l0 0c-16.020569 0 -29.007874 -12.987274 -29.007874 -29.007874z" fill-rule="evenodd"/><path fill="#000000" d="m734.0 361.00787l0 0c0 -16.0206 12.987244 -29.007874 29.007874 -29.007874l0 0c7.6933594 0 15.071655 3.0561829 20.511658 8.496216c5.4400635 5.440033 8.496216 12.818298 8.496216 20.511658l0 0c0 16.0206 -12.987244 29.007874 -29.007874 29.007874l0 0c-16.02063 0 -29.007874 -12.987274 -29.007874 -29.007874z" fill-rule="evenodd"/><path stroke="#ffffff" stroke-width="8.0" stroke-linejoin="round" stroke-linecap="butt" d="m734.0 361.00787l0 0c0 -16.0206 12.987244 -29.007874 29.007874 -29.007874l0 0c7.6933594 0 15.071655 3.0561829 20.511658 8.496216c5.4400635 5.440033 8.496216 12.818298 8.496216 20.511658l0 0c0 16.0206 -12.987244 29.007874 -29.007874 29.007874l0 0c-16.02063 0 -29.007874 -12.987274 -29.007874 -29.007874z" fill-rule="evenodd"/><path fill="#000000" fill-opacity="0.0" d="m684.0 244.00787l-104.0 0" fill-rule="evenodd"/><path stroke="#000000" stroke-width="12.0" stroke-linejoin="round" stroke-linecap="butt" d="m684.0 244.00787l-104.0 0" fill-rule="evenodd"/><path fill="#000000" d="m658.0 249.00787l0 0c0 -16.0206 12.987244 -29.007874 29.007874 -29.007874l0 0c7.6933594 0 15.071655 3.0561829 20.511658 8.496216c5.4400635 5.440033 8.496216 12.818298 8.496216 20.511658l0 0c0 16.0206 -12.987244 29.007874 -29.007874 29.007874l0 0c-16.02063 0 -29.007874 -12.987274 -29.007874 -29.007874z" fill-rule="evenodd"/><path stroke="#ffffff" stroke-width="8.0" stroke-linejoin="round" stroke-linecap="butt" d="m658.0 249.00787l0 0c0 -16.0206 12.987244 -29.007874 29.007874 -29.007874l0 0c7.6933594 0 15.071655 3.0561829 20.511658 8.496216c5.4400635 5.440033 8.496216 12.818298 8.496216 20.511658l0 0c0 16.0206 -12.987244 29.007874 -29.007874 29.007874l0 0c-16.02063 0 -29.007874 -12.987274 -29.007874 -29.007874z" fill-rule="evenodd"/><path fill="#000000" fill-opacity="0.0" d="m308.0 96.55118l314.96063 0l0 42.015747l-314.96063 0z" fill-rule="evenodd"/><path fill="#000000" d="m339.12598 283.06567l0 104.68402l159.74805 0l0 -43.695618l-117.49869 0l0 -50.951202z" fill-rule="evenodd"/><path fill="#ffffff" d="m73.91601 292.86334l73.196846 -139.94945l73.19685 139.94945l-38.08432 0l0 154.22379l-70.22506 0l0 -154.22379z" fill-rule="evenodd"/><path fill="#ffffff" d="m328.4147 274.7344l-73.19685 139.42096l-73.19685 -139.42096l44.656662 0l0 -154.75226l57.080368 0l0 154.75226z" fill-rule="evenodd"/><path fill="#000000" d="m98.75328 283.99985l52.53543 -107.49066l52.53543 107.49066l-32.05133 0l0 103.658936l-40.968185 0l0 -103.658936z" fill-rule="evenodd"/><path fill="#000000" d="m307.7533 282.99982l-52.535446 104.658966l-52.53543 -104.658966l32.051346 0l0 -106.49063l40.96817 0l0 106.49063z" fill-rule="evenodd"/><path fill="#ffffff" d="m275.61942 272.4908l48.125977 0l0 169.51181l-48.125977 0z" fill-rule="evenodd"/><path fill="#000000" d="m130.50131 177.45932l20.818893 0l0 207.93701l-20.818893 0z" fill-rule="evenodd"/><path fill="#000000" d="m254.50131 179.71916l21.007874 0l0 207.937l-21.007874 0z" fill-rule="evenodd"/><path fill="#ffffff" d="m56.02887 104.07087l75.11812 0l0 292.9449l-75.11812 0z" fill-rule="evenodd"/><path fill="#ffffff" d="m26.0 397.01575l1536.0 0l0 536.9449l-1536.0 0z" fill-rule="evenodd"/><path stroke="#ffffff" stroke-width="1.0" stroke-linejoin="round" stroke-linecap="butt" d="m26.0 397.01575l1536.0 0l0 536.9449l-1536.0 0z" fill-rule="evenodd"/></g></svg>